<svg width="303" height="413" viewBox="0 0 303 413" fill="none" xmlns="http://www.w3.org/2000/svg">
<path d="M212.424 372.186C212.424 397.068 342.344 404.261 184.584 412.727C173.757 372.186 62.9513 397.068 62.9513 372.186C62.9513 347.304 108.687 327.133 165.105 327.133C221.522 327.133 212.424 347.304 212.424 372.186Z" fill="#958080"/>
<path d="M195.226 290.064C195.226 333.361 165.213 368.46 128.19 368.46C-35.8968 368.46 101.456 368.46 82.9166 296.539C60.9775 234.058 91.1665 211.668 128.19 211.668C165.213 211.668 195.226 246.767 195.226 290.064Z" fill="#958080"/>
<ellipse cx="128.373" cy="176.82" rx="52.8748" ry="57.7369" fill="#958080"/>
<ellipse cx="206.166" cy="234.556" rx="57.1291" ry="17.0172" transform="rotate(-35 206.166 234.556)" fill="#958080"/>
<path d="M259.648 164.263C259.648 188.43 256.193 208.021 248.138 208.021C240.082 208.021 234.123 210.309 234.123 186.142C234.123 161.975 240.082 120.504 248.138 120.504C256.193 120.504 259.648 140.095 259.648 164.263Z" fill="#958080"/>
<path d="M89.8939 78.0119C103.594 115.652 109.547 148.04 103.191 150.353C96.8349 152.667 82.5123 123.903 68.8126 86.2638C-40.5836 3.60884 47.2239 16.3616 53.5799 14.0482C25.9229 48.7483 76.1942 40.3724 89.8939 78.0119Z" fill="#958080"/>
<path d="M139.036 90.3538C130.026 129.382 117.378 159.788 110.788 158.266C104.197 156.745 107.851 124.821 116.861 85.7927C70.1312 -43.109 136.827 15.4098 143.418 16.9313C101.324 30.9702 148.046 51.3252 139.036 90.3538Z" fill="#958080"/>
<ellipse cx="262.724" cy="111.336" rx="13.3706" ry="26.1316" transform="rotate(28 262.724 111.336)" fill="#958080"/>
<ellipse cx="46.6137" cy="364.883" rx="28.3483" ry="18.2327" transform="rotate(36 46.6137 364.883)" fill="#958080"/>
<ellipse cx="252.006" cy="396.296" rx="41.9352" ry="16.4309" fill="#958080"/>
<ellipse cx="122.1" cy="383.301" rx="59.1482" ry="29.4266" fill="#958080"/>
<path d="M6.05434 340.557L31.1642 349.423L22.246 361.698L6.05434 340.557Z" fill="#958080"/>
<path d="M6.05434 340.557L31.1642 349.423L22.246 361.698L6.05434 340.557Z" fill="#958080"/>
<path d="M6.05434 340.557L31.1642 349.423L22.246 361.698L6.05434 340.557Z" fill="#958080"/>
<path d="M13.9303 334.22L39.0402 343.086L30.122 355.361L13.9303 334.22Z" fill="#958080"/>
<path d="M13.9303 334.22L39.0402 343.086L30.122 355.361L13.9303 334.22Z" fill="#958080"/>
<path d="M13.9303 334.22L39.0402 343.086L30.122 355.361L13.9303 334.22Z" fill="#958080"/>
<path d="M27.3302 327.627L46.9797 345.599L33.9743 353.414L27.3302 327.627Z" fill="#958080"/>
<path d="M27.3302 327.627L46.9797 345.599L33.9743 353.414L27.3302 327.627Z" fill="#958080"/>
<path d="M27.3302 327.627L46.9797 345.599L33.9743 353.414L27.3302 327.627Z" fill="#958080"/>
<g filter="url(#filter0_d_207_36)">
<rect x="286.797" y="32.0141" width="11.9801" height="64.4222" transform="rotate(20 286.797 32.0141)" fill="white"/>
<rect x="286.797" y="32.0141" width="11.9801" height="64.4222" transform="rotate(20 286.797 32.0141)" stroke="black"/>
</g>
<defs>
<filter id="filter0_d_207_36" x="260.123" y="31.3732" width="42.573" height="73.9162" filterUnits="userSpaceOnUse" color-interpolation-filters="sRGB">
<feFlood flood-opacity="0" result="BackgroundImageFix"/>
<feColorMatrix in="SourceAlpha" type="matrix" values="0 0 0 0 0 0 0 0 0 0 0 0 0 0 0 0 0 0 127 0" result="hardAlpha"/>
<feOffset dy="4"/>
<feGaussianBlur stdDeviation="2"/>
<feComposite in2="hardAlpha" operator="out"/>
<feColorMatrix type="matrix" values="0 0 0 0 0 0 0 0 0 0 0 0 0 0 0 0 0 0 0.25 0"/>
<feBlend mode="normal" in2="BackgroundImageFix" result="effect1_dropShadow_207_36"/>
<feBlend mode="normal" in="SourceGraphic" in2="effect1_dropShadow_207_36" result="shape"/>
</filter>
</defs>
</svg>
