<svg width="378" height="391" viewBox="0 0 378 391" fill="none" xmlns="http://www.w3.org/2000/svg">
<path d="M205.363 83.2123C233.188 112.026 251.8 139.192 246.934 143.891C242.069 148.59 217.285 128.139 189.461 99.3253C55.9036 68.3117 141.307 44.2474 146.172 39.5488C135.02 82.498 177.538 54.399 205.363 83.2123Z" fill="#958080"/>
<path d="M257.637 76.9693C268.677 115.473 272.357 148.198 265.855 150.062C259.353 151.926 247.072 122.234 236.031 83.7305C132.667 -6.35415 219.371 12.4927 225.873 10.6283C195.863 43.3146 246.596 38.4658 257.637 76.9693Z" fill="#958080"/>
<path d="M87.4614 305.011C97.2364 351.578 12.2472 300.075 11.2017 338.607C16.2058 348.428 122.44 373.681 154.044 322.629C185.647 271.578 134.398 301.488 129.394 291.667C124.39 281.846 77.6863 258.443 87.4614 305.011Z" fill="#958080"/>
<ellipse cx="31.3785" cy="340.776" rx="30.9956" ry="19.0983" fill="#958080"/>
<ellipse cx="271.418" cy="177.349" rx="53.5818" ry="55.2799" fill="#958080"/>
<path d="M315.741 276.909C315.741 318.331 262.639 329.922 194.156 329.922C125.672 329.922 81.1112 318.331 81.1112 276.909C81.1112 235.488 136.628 241.099 205.111 241.099C263.473 181.539 302.37 208.281 315.741 276.909Z" fill="#958080"/>
<path d="M297.474 292.242C297.474 340.862 366.758 314.25 366.758 354.233C361.493 364.567 291.397 368.819 281.673 340.862C261.989 330.833 245.903 324.584 251.168 314.25C256.433 303.916 277.791 282.212 297.474 292.242Z" fill="#958080"/>
<ellipse cx="78.3159" cy="246" rx="28.3483" ry="18.2327" transform="rotate(36 78.3159 246)" fill="#958080"/>
<path d="M42.4525 215.235L67.5624 224.101L58.6442 236.376L42.4525 215.235Z" fill="#958080"/>
<path d="M42.4525 215.235L67.5624 224.101L58.6442 236.376L42.4525 215.235Z" fill="#958080"/>
<path d="M42.4525 215.235L67.5624 224.101L58.6442 236.376L42.4525 215.235Z" fill="#958080"/>
<path d="M40.2329 225.542L65.3428 234.409L56.4246 246.684L40.2329 225.542Z" fill="#958080"/>
<path d="M40.2329 225.542L65.3428 234.409L56.4246 246.684L40.2329 225.542Z" fill="#958080"/>
<path d="M40.2329 225.542L65.3428 234.409L56.4246 246.684L40.2329 225.542Z" fill="#958080"/>
<path d="M56.0735 210.883L75.7229 228.856L62.7175 236.671L56.0735 210.883Z" fill="#958080"/>
<path d="M56.0735 210.883L75.7229 228.856L62.7175 236.671L56.0735 210.883Z" fill="#958080"/>
<path d="M56.0735 210.883L75.7229 228.856L62.7175 236.671L56.0735 210.883Z" fill="#958080"/>
</svg>
