<svg width="322" height="390" viewBox="0 0 322 390" fill="none" xmlns="http://www.w3.org/2000/svg">
<path fill-rule="evenodd" clip-rule="evenodd" d="M261.384 120.143C263.605 107.518 265 89.2808 265 69C265 30.8924 260.075 0 254 0C247.925 0 243 30.8924 243 69C243 91.1888 244.67 110.931 247.264 123.554C224.468 132.973 208 160.057 208 192C208 202.868 209.906 213.174 213.32 222.413C203.315 220.838 192.819 220 182 220C131.866 220 88.6813 237.995 69.1385 263.889C64.4367 257.123 56.5127 250.373 46.5339 245.289C26.8503 235.26 6.62519 235.506 1.35983 245.84C-3.90555 256.174 7.78272 272.682 27.4663 282.711C38.4708 288.318 49.6446 290.713 58.2789 289.93C58.094 291.605 58 293.296 58 295C58 310.208 65.4839 324.359 78.3458 336.179C76.919 338.165 75.5533 340.276 74.2695 342.5C63.2238 361.632 62.4119 381.842 72.456 387.641C82.5001 393.44 99.5968 382.632 110.643 363.5C111.772 361.543 112.795 359.575 113.71 357.612C133.294 365.441 156.767 370 182 370C206.448 370 229.244 365.721 248.451 358.333C253.163 363.461 259.62 368.354 267.292 372.263C286.976 382.292 307.201 382.045 312.466 371.711C317.69 361.459 306.228 345.131 286.827 335.08C298.97 323.487 306 309.74 306 295C306 281.229 299.864 268.325 289.155 257.234C308.56 245.75 322 220.857 322 192C322 160.263 305.744 133.323 283.177 123.738C289.838 112.7 297.936 95.0959 305.337 74.7622C318.37 38.9528 324.308 8.23901 318.599 6.16119C312.891 4.0834 297.697 31.4283 284.663 67.2378C277.013 88.258 271.807 107.522 269.967 120.27C268.33 120.091 266.673 120 265 120C263.786 120 262.58 120.048 261.384 120.143Z" fill="#958080"/>
</svg>
